<svg width="112" height="16" viewBox="0 0 112 16" fill="none" xmlns="http://www.w3.org/2000/svg">
<g clip-path="url(#clip0_310_3504)">
<rect width="41" height="16" fill="#0070F4"/>
<path d="M8.18182 12H5.71733V4.72727H8.23153C8.9536 4.72727 9.57386 4.87287 10.0923 5.16406C10.6132 5.45289 11.0133 5.86837 11.2926 6.41051C11.572 6.95265 11.7116 7.60133 11.7116 8.35653C11.7116 9.11411 11.5708 9.76515 11.2891 10.3097C11.0097 10.8542 10.6061 11.272 10.0781 11.5632C9.55256 11.8544 8.92045 12 8.18182 12ZM7.0348 10.8601H8.1179C8.62453 10.8601 9.04711 10.7678 9.38565 10.5831C9.7242 10.3961 9.97869 10.1179 10.1491 9.74858C10.3196 9.37689 10.4048 8.91288 10.4048 8.35653C10.4048 7.80019 10.3196 7.33854 10.1491 6.97159C9.97869 6.60227 9.72656 6.32647 9.39276 6.14418C9.06132 5.95952 8.64938 5.86719 8.15696 5.86719H7.0348V10.8601ZM12.9634 4.72727H14.5756L16.7347 9.99716H16.82L18.979 4.72727H20.5913V12H19.3271V7.00355H19.2596L17.2496 11.9787H16.305L14.2951 6.9929H14.2276V12H12.9634V4.72727ZM28.2511 7.18111H26.9229C26.8851 6.9633 26.8152 6.77036 26.7134 6.60227C26.6116 6.43182 26.485 6.28741 26.3335 6.16903C26.1819 6.05066 26.0091 5.96188 25.815 5.9027C25.6232 5.84115 25.4161 5.81037 25.1935 5.81037C24.7982 5.81037 24.4478 5.9098 24.1424 6.10866C23.837 6.30516 23.5979 6.59399 23.4251 6.97514C23.2522 7.35393 23.1658 7.81676 23.1658 8.36364C23.1658 8.91998 23.2522 9.38873 23.4251 9.76989C23.6003 10.1487 23.8394 10.4351 24.1424 10.6293C24.4478 10.821 24.797 10.9169 25.19 10.9169C25.4078 10.9169 25.6114 10.8885 25.8008 10.8317C25.9925 10.7725 26.1642 10.6861 26.3157 10.5724C26.4696 10.4588 26.5986 10.3191 26.7028 10.1534C26.8093 9.98769 26.8827 9.7983 26.9229 9.58523L28.2511 9.59233C28.2013 9.93797 28.0936 10.2623 27.9279 10.5653C27.7646 10.8684 27.5503 11.1359 27.2852 11.3679C27.02 11.5975 26.7099 11.7775 26.3548 11.9077C25.9996 12.0355 25.6055 12.0994 25.1722 12.0994C24.533 12.0994 23.9625 11.9515 23.4606 11.6555C22.9587 11.3596 22.5633 10.9323 22.2745 10.3736C21.9857 9.81487 21.8413 9.14489 21.8413 8.36364C21.8413 7.58002 21.9869 6.91004 22.2781 6.35369C22.5692 5.79498 22.9658 5.36766 23.4677 5.07173C23.9696 4.7758 24.5378 4.62784 25.1722 4.62784C25.5771 4.62784 25.9535 4.68466 26.3015 4.7983C26.6495 4.91193 26.9596 5.07884 27.2319 5.29901C27.5041 5.51681 27.7279 5.78433 27.9031 6.10156C28.0806 6.41643 28.1966 6.77628 28.2511 7.18111ZM30.3036 12H28.8974L31.4577 4.72727H33.0842L35.6481 12H34.2418L32.2994 6.21875H32.2425L30.3036 12ZM30.3498 9.14844H34.185V10.2067H30.3498V9.14844Z" fill="white"/>
<rect width="71" height="16" transform="translate(41)" fill="#00224A"/>
<path d="M46.7173 12V4.72727H49.4446C50.0033 4.72727 50.4721 4.83144 50.8509 5.03977C51.232 5.24811 51.5196 5.53456 51.7138 5.89915C51.9103 6.26136 52.0085 6.6733 52.0085 7.13494C52.0085 7.60133 51.9103 8.01562 51.7138 8.37784C51.5173 8.74006 51.2273 9.02533 50.8438 9.23366C50.4602 9.43963 49.9879 9.54261 49.4268 9.54261H47.6193V8.45952H49.2493C49.576 8.45952 49.8435 8.4027 50.0518 8.28906C50.2602 8.17543 50.4141 8.01918 50.5135 7.82031C50.6153 7.62145 50.6662 7.39299 50.6662 7.13494C50.6662 6.87689 50.6153 6.64962 50.5135 6.45312C50.4141 6.25663 50.259 6.10393 50.0483 5.99503C49.84 5.88376 49.5713 5.82812 49.2422 5.82812H48.0348V12H46.7173ZM53.1529 12V4.72727H55.8801C56.4389 4.72727 56.9076 4.82434 57.2864 5.01847C57.6676 5.21259 57.9552 5.48485 58.1493 5.83523C58.3458 6.18324 58.4441 6.58925 58.4441 7.05327C58.4441 7.51965 58.3446 7.92448 58.1458 8.26776C57.9493 8.60866 57.6593 8.87263 57.2757 9.05966C56.8922 9.24432 56.4211 9.33665 55.8624 9.33665H53.9199V8.2429H55.6848C56.0115 8.2429 56.2791 8.19792 56.4874 8.10795C56.6957 8.01562 56.8496 7.88187 56.949 7.70668C57.0508 7.52912 57.1017 7.31132 57.1017 7.05327C57.1017 6.79522 57.0508 6.57505 56.949 6.39276C56.8472 6.2081 56.6922 6.06842 56.4838 5.97372C56.2755 5.87666 56.0068 5.82812 55.6777 5.82812H54.4703V12H53.1529ZM56.91 8.70455L58.7104 12H57.2402L55.4718 8.70455H56.91ZM66.1554 8.36364C66.1554 9.14725 66.0086 9.81842 65.715 10.3771C65.4238 10.9335 65.0261 11.3596 64.5218 11.6555C64.0199 11.9515 63.4506 12.0994 62.8137 12.0994C62.1769 12.0994 61.6064 11.9515 61.1021 11.6555C60.6002 11.3572 60.2025 10.9299 59.9089 10.3736C59.6177 9.81487 59.4721 9.14489 59.4721 8.36364C59.4721 7.58002 59.6177 6.91004 59.9089 6.35369C60.2025 5.79498 60.6002 5.36766 61.1021 5.07173C61.6064 4.7758 62.1769 4.62784 62.8137 4.62784C63.4506 4.62784 64.0199 4.7758 64.5218 5.07173C65.0261 5.36766 65.4238 5.79498 65.715 6.35369C66.0086 6.91004 66.1554 7.58002 66.1554 8.36364ZM64.8308 8.36364C64.8308 7.81203 64.7444 7.34683 64.5716 6.96804C64.4011 6.58688 64.1644 6.29924 63.8613 6.10511C63.5583 5.90862 63.2091 5.81037 62.8137 5.81037C62.4184 5.81037 62.0692 5.90862 61.7662 6.10511C61.4631 6.29924 61.2252 6.58688 61.0524 6.96804C60.8819 7.34683 60.7967 7.81203 60.7967 8.36364C60.7967 8.91525 60.8819 9.38163 61.0524 9.76278C61.2252 10.1416 61.4631 10.4292 61.7662 10.6257C62.0692 10.8198 62.4184 10.9169 62.8137 10.9169C63.2091 10.9169 63.5583 10.8198 63.8613 10.6257C64.1644 10.4292 64.4011 10.1416 64.5716 9.76278C64.7444 9.38163 64.8308 8.91525 64.8308 8.36364ZM66.7591 5.83168V4.72727H72.5616V5.83168H70.3137V12H69.0069V5.83168H66.7591ZM73.6802 12V4.72727H78.4103V5.83168H74.9977V7.80611H78.1653V8.91051H74.9977V10.8956H78.4387V12H73.6802ZM85.9796 7.18111H84.6515C84.6136 6.9633 84.5437 6.77036 84.4419 6.60227C84.3401 6.43182 84.2135 6.28741 84.062 6.16903C83.9105 6.05066 83.7376 5.96188 83.5435 5.9027C83.3517 5.84115 83.1446 5.81037 82.9221 5.81037C82.5267 5.81037 82.1763 5.9098 81.8709 6.10866C81.5655 6.30516 81.3264 6.59399 81.1536 6.97514C80.9808 7.35393 80.8944 7.81676 80.8944 8.36364C80.8944 8.91998 80.9808 9.38873 81.1536 9.76989C81.3288 10.1487 81.5679 10.4351 81.8709 10.6293C82.1763 10.821 82.5255 10.9169 82.9185 10.9169C83.1363 10.9169 83.3399 10.8885 83.5293 10.8317C83.7211 10.7725 83.8927 10.6861 84.0442 10.5724C84.1981 10.4588 84.3271 10.3191 84.4313 10.1534C84.5378 9.98769 84.6112 9.7983 84.6515 9.58523L85.9796 9.59233C85.9299 9.93797 85.8221 10.2623 85.6564 10.5653C85.4931 10.8684 85.2788 11.1359 85.0137 11.3679C84.7485 11.5975 84.4384 11.7775 84.0833 11.9077C83.7282 12.0355 83.334 12.0994 82.9007 12.0994C82.2615 12.0994 81.691 11.9515 81.1891 11.6555C80.6872 11.3596 80.2918 10.9323 80.003 10.3736C79.7142 9.81487 79.5698 9.14489 79.5698 8.36364C79.5698 7.58002 79.7154 6.91004 80.0066 6.35369C80.2978 5.79498 80.6943 5.36766 81.1962 5.07173C81.6981 4.7758 82.2663 4.62784 82.9007 4.62784C83.3056 4.62784 83.682 4.68466 84.03 4.7983C84.378 4.91193 84.6882 5.07884 84.9604 5.29901C85.2327 5.51681 85.4564 5.78433 85.6316 6.10156C85.8091 6.41643 85.9251 6.77628 85.9796 7.18111ZM86.8665 5.83168V4.72727H92.669V5.83168H90.4212V12H89.1143V5.83168H86.8665ZM93.7876 12V4.72727H98.5178V5.83168H95.1051V7.80611H98.2727V8.91051H95.1051V10.8956H98.5462V12H93.7876ZM102.326 12H99.8619V4.72727H102.376C103.098 4.72727 103.718 4.87287 104.237 5.16406C104.758 5.45289 105.158 5.86837 105.437 6.41051C105.717 6.95265 105.856 7.60133 105.856 8.35653C105.856 9.11411 105.715 9.76515 105.434 10.3097C105.154 10.8542 104.751 11.272 104.223 11.5632C103.697 11.8544 103.065 12 102.326 12ZM101.179 10.8601H102.262C102.769 10.8601 103.192 10.7678 103.53 10.5831C103.869 10.3961 104.123 10.1179 104.294 9.74858C104.464 9.37689 104.549 8.91288 104.549 8.35653C104.549 7.80019 104.464 7.33854 104.294 6.97159C104.123 6.60227 103.871 6.32647 103.537 6.14418C103.206 5.95952 102.794 5.86719 102.301 5.86719H101.179V10.8601Z" fill="white"/>
</g>
<defs>
<clipPath id="clip0_310_3504">
<rect width="112" height="16" rx="4" fill="white"/>
</clipPath>
</defs>
</svg>
