<svg width="73" height="73" viewBox="0 0 73 73" fill="none" xmlns="http://www.w3.org/2000/svg">
<g clip-path="url(#clip0_152_4805)">
<path d="M0.428467 18.5C0.428467 8.55888 8.48734 0.5 18.4285 0.5H54.4285C64.3696 0.5 72.4285 8.55888 72.4285 18.5V54.5C72.4285 64.4411 64.3696 72.5 54.4285 72.5H18.4285C8.48734 72.5 0.428467 64.4411 0.428467 54.5V18.5Z" fill="url(#paint0_linear_152_4805)"/>
<path fill-rule="evenodd" clip-rule="evenodd" d="M28.326 31.7197C26.086 29.4832 24.9695 26.551 24.9695 23.6189C24.9695 17.7023 28.8547 15.1632 29.8912 15.1632C30.1868 15.1632 30.319 15.2954 30.319 15.591C30.319 15.7346 30.2708 15.9283 30.2063 16.1877C30.0754 16.7138 29.8773 17.5102 29.8773 18.7076C29.8773 24.1093 34.239 28.5267 39.6929 28.5267C43.0634 28.5267 46.086 26.8189 47.8668 24.151C47.7416 26.9023 46.6251 29.6189 44.5242 31.7197C40.0512 36.1928 32.799 36.1928 28.326 31.7197Z" fill="url(#paint1_radial_152_4805)"/>
<path fill-rule="evenodd" clip-rule="evenodd" d="M38.3914 17.793C36.7917 15.7295 35.1365 13.5943 35.1365 10.7598C35.1365 7.54237 38.1765 5.31976 39.3452 5.31628C39.6443 5.31628 39.8113 5.43107 39.8113 5.67802C39.8113 5.81156 39.7426 5.99337 39.6528 6.23122C39.4829 6.68104 39.2373 7.33129 39.2373 8.23455C39.2373 10.1631 40.7699 11.6583 42.5447 13.3896C44.9855 15.7708 47.8843 18.5988 47.8843 23.6154C47.8843 23.918 47.8704 24.1476 47.8704 24.1476C46.0895 26.8154 43.0669 28.5232 39.6965 28.5232C38.3469 28.5232 37.0704 28.2554 35.9052 27.7685C35.9052 27.7685 36.4756 27.9876 37.2547 27.9876C39.5156 27.9876 41.3347 26.1545 41.3347 23.9076C41.3347 21.5897 39.8873 19.7227 38.3914 17.793Z" fill="url(#paint2_linear_152_4805)"/>
<path fill-rule="evenodd" clip-rule="evenodd" d="M13.519 39.9945C13.519 39.0937 14.2529 38.3597 15.1572 38.3597H57.7033C58.6042 38.3597 59.3381 39.0902 59.3381 39.9945C59.3381 53.0832 49.519 62.9023 41.3381 62.9023H31.519C23.3381 62.9023 13.519 53.0867 13.519 39.9945Z" fill="url(#paint3_radial_152_4805)"/>
<path d="M43.6983 48.7703L43.0201 44.2555C42.9331 43.6676 42.4253 43.2294 41.8305 43.2294H37.1974C36.5018 43.2294 35.8374 43.532 35.3818 44.0572L29.4653 50.8642C29.1592 51.2155 29.0861 51.7129 29.274 52.1372C30.5192 54.965 32.9644 57.0902 35.9383 57.9285C36.387 58.0537 36.867 57.9111 37.1731 57.5598L43.1348 50.7042C43.594 50.172 43.8027 49.4659 43.6983 48.7703ZM40.1227 47.685C39.4583 47.7302 38.8844 47.2329 38.8392 46.5685C38.794 45.9042 39.2914 45.3303 39.9557 45.285C40.6201 45.2398 41.194 45.7372 41.2392 46.4015C41.2844 47.0624 40.7835 47.6363 40.1227 47.685Z" fill="white"/>
</g>
<defs>
<linearGradient id="paint0_linear_152_4805" x1="66.4285" y1="72.5" x2="3.70119" y2="0.499996" gradientUnits="userSpaceOnUse">
<stop stop-color="#E6E9ED"/>
<stop offset="1" stop-color="#F2F3F5"/>
</linearGradient>
<radialGradient id="paint1_radial_152_4805" cx="0" cy="0" r="1" gradientUnits="userSpaceOnUse" gradientTransform="translate(26.2092 18.6754) rotate(35) scale(23.282 23.282)">
<stop stop-color="#00B63E"/>
<stop offset="0.1802" stop-color="#09BB3C"/>
<stop offset="0.4736" stop-color="#21C937"/>
<stop offset="0.8416" stop-color="#48DF2E"/>
<stop offset="0.9956" stop-color="#5BE92A"/>
<stop offset="1" stop-color="#5BE92A"/>
</radialGradient>
<linearGradient id="paint2_linear_152_4805" x1="44.305" y1="27.3651" x2="38.7216" y2="6.52752" gradientUnits="userSpaceOnUse">
<stop stop-color="#0070F4"/>
<stop offset="0.1605" stop-color="#0E8CF7"/>
<stop offset="0.4093" stop-color="#21B2FA"/>
<stop offset="0.6402" stop-color="#2FCDFD"/>
<stop offset="0.8442" stop-color="#37DDFE"/>
<stop offset="1" stop-color="#3AE3FF"/>
</linearGradient>
<radialGradient id="paint3_radial_152_4805" cx="0" cy="0" r="1" gradientUnits="userSpaceOnUse" gradientTransform="translate(12.0529 38.0883) scale(48.1153 48.1153)">
<stop stop-color="#0070F4"/>
<stop offset="0.1903" stop-color="#006EF0"/>
<stop offset="0.3886" stop-color="#0068E3"/>
<stop offset="0.5905" stop-color="#005FCE"/>
<stop offset="0.7949" stop-color="#0052B1"/>
<stop offset="1" stop-color="#00418C"/>
</radialGradient>
<clipPath id="clip0_152_4805">
<rect x="0.428467" y="0.5" width="72" height="72" rx="14.7273" fill="white"/>
</clipPath>
</defs>
</svg>
