<svg width="73" height="73" viewBox="0 0 73 73" fill="none" xmlns="http://www.w3.org/2000/svg">
<g clip-path="url(#clip0_152_4756)">
<path d="M0.857178 18.5C0.857178 8.55888 8.91605 0.5 18.8572 0.5H54.8572C64.7983 0.5 72.8572 8.55888 72.8572 18.5V54.5C72.8572 64.4411 64.7983 72.5 54.8572 72.5H18.8572C8.91605 72.5 0.857178 64.4411 0.857178 54.5V18.5Z" fill="url(#paint0_linear_152_4756)"/>
<path fill-rule="evenodd" clip-rule="evenodd" d="M50.5934 13.4491C50.5934 13.1116 50.866 12.8391 51.2034 12.8391H56.707C57.5475 12.8391 58.2322 13.5238 58.2322 14.3675V36.2096V51.0036C58.2322 51.8441 57.5475 52.5288 56.7005 52.5288C56.4604 52.5288 56.0483 52.4639 55.4739 52.1978C55.2078 52.0777 54.1337 51.5748 53.4587 51.2568C53.0499 51.0653 52.8974 51.0036 52.7319 51.0036C52.5436 51.0036 52.3068 51.101 52.1834 51.3476C52.1667 51.3811 52.0148 51.7438 51.828 52.1898C51.5445 52.8667 51.1805 53.7356 51.0866 53.9371C49.3862 57.6235 45.6804 60.1643 41.371 60.1643H17.0073C16.1636 60.1643 15.4822 59.4829 15.4822 58.6392V36.2129V14.3675C15.4822 13.5238 16.1636 12.8391 17.0073 12.8391H22.5012C22.8387 12.8391 23.1112 13.1116 23.1112 13.4491V15.1268C23.1112 15.6038 23.254 16.0419 23.5006 16.4086C23.5428 16.467 23.5883 16.5286 23.6337 16.5838C23.6791 16.6422 23.7278 16.6941 23.7797 16.7461C23.8803 16.8499 23.9939 16.9408 24.1172 17.0251C24.1334 17.0349 24.1488 17.0446 24.1642 17.0543C24.1797 17.0641 24.1951 17.0738 24.2113 17.0835C24.2762 17.1225 24.3379 17.1582 24.406 17.1906C24.5715 17.2685 24.7532 17.3302 24.9382 17.3691C25.0128 17.3853 25.0875 17.3983 25.1653 17.4048C25.24 17.4145 25.3211 17.4178 25.399 17.4178C25.4379 17.4178 25.4769 17.4178 25.5158 17.4145H25.5191C25.5515 17.4145 25.584 17.4113 25.6164 17.408C25.6334 17.408 25.6479 17.4056 25.6643 17.4028C25.6667 17.4024 25.6691 17.402 25.6716 17.4015C25.6917 17.4015 25.7093 17.399 25.7289 17.3961C25.7314 17.3958 25.7339 17.3954 25.7365 17.3951C25.7689 17.3918 25.8013 17.3853 25.8338 17.3788L25.8338 17.3788C25.85 17.374 25.8663 17.3707 25.8825 17.3675C25.8987 17.3642 25.9149 17.361 25.9312 17.3561H25.9377C26.9534 17.1063 27.69 16.162 27.69 15.0749V13.4491C27.69 13.1116 27.9626 12.8391 28.3 12.8391H33.9496C34.2871 12.8391 34.5597 13.1116 34.5597 13.4491V15.1268C34.5597 16.4183 35.6338 17.46 36.9351 17.4145C38.1779 17.3691 39.1417 16.3145 39.1417 15.0716V13.4459C39.1417 13.1084 39.4143 12.8358 39.7517 12.8358H45.4013C45.7388 12.8358 46.0114 13.1084 46.0114 13.4459V15.0716C46.0114 16.3112 46.9784 17.3691 48.218 17.4145C49.5225 17.4632 50.5934 16.4216 50.5934 15.1268V13.4491Z" fill="url(#paint1_linear_152_4756)"/>
<path fill-rule="evenodd" clip-rule="evenodd" d="M21.1706 32.1369C20.8688 31.7345 21.1576 31.1602 21.6606 31.1602H28.8386C29.3156 31.1602 29.7699 31.3841 30.0587 31.7702L35.3254 38.7924L36.6688 40.5837L38.684 43.2705C39.2941 44.085 40.5174 44.085 41.1275 43.2705L39.9074 44.8995L37.7689 47.7487C36.5455 49.3777 34.102 49.3777 32.8819 47.7487L30.7434 44.8995L21.1706 32.1369Z" fill="url(#paint2_linear_152_4756)"/>
<path fill-rule="evenodd" clip-rule="evenodd" d="M44.0285 27.1882C44.314 26.8053 44.7684 26.5781 45.2486 26.5781H52.4234C52.9264 26.5781 53.2152 27.1525 52.9134 27.5549L43.8468 39.6458L41.1274 43.2705C40.5174 44.085 39.294 44.085 38.6839 43.2705L36.6688 40.5836L35.3253 38.7924L44.0285 27.1882Z" fill="url(#paint3_linear_152_4756)"/>
</g>
<defs>
<linearGradient id="paint0_linear_152_4756" x1="0.844518" y1="0.511519" x2="72.8448" y2="72.5118" gradientUnits="userSpaceOnUse">
<stop stop-color="#0070F4"/>
<stop offset="1" stop-color="#00418C"/>
</linearGradient>
<linearGradient id="paint1_linear_152_4756" x1="14.7819" y1="14.4268" x2="55.1062" y2="54.7513" gradientUnits="userSpaceOnUse">
<stop stop-color="white"/>
<stop offset="0.3937" stop-color="#FDFDFE"/>
<stop offset="0.5612" stop-color="#F6F8F9"/>
<stop offset="0.6858" stop-color="#E9EEF0"/>
<stop offset="0.7891" stop-color="#D8E0E4"/>
<stop offset="0.8793" stop-color="#C1CDD4"/>
<stop offset="0.959" stop-color="#A5B7C1"/>
<stop offset="1" stop-color="#93A9B5"/>
</linearGradient>
<linearGradient id="paint2_linear_152_4756" x1="23.5804" y1="29.6695" x2="36.8259" y2="48.5861" gradientUnits="userSpaceOnUse">
<stop stop-color="#00B63E"/>
<stop offset="1.32685e-07" stop-color="#00B63E"/>
<stop offset="0.154" stop-color="#13C03A"/>
<stop offset="0.522" stop-color="#3AD631"/>
<stop offset="0.8154" stop-color="#52E42C"/>
<stop offset="0.9956" stop-color="#5BE92A"/>
<stop offset="1" stop-color="#5BE92A"/>
</linearGradient>
<linearGradient id="paint3_linear_152_4756" x1="51.1345" y1="25.5425" x2="38.6639" y2="43.3525" gradientUnits="userSpaceOnUse">
<stop stop-color="#3AE3FF"/>
<stop offset="1" stop-color="#0070F4"/>
</linearGradient>
<clipPath id="clip0_152_4756">
<rect x="0.857178" y="0.5" width="72" height="72" rx="14.7273" fill="white"/>
</clipPath>
</defs>
</svg>
