<svg width="73" height="73" viewBox="0 0 73 73" fill="none" xmlns="http://www.w3.org/2000/svg">
<g clip-path="url(#clip0_152_4733)">
<path d="M0.571411 18.5C0.571411 8.55888 8.63029 0.5 18.5714 0.5H54.5714C64.5125 0.5 72.5714 8.55888 72.5714 18.5V54.5C72.5714 64.4411 64.5125 72.5 54.5714 72.5H18.5714C8.63029 72.5 0.571411 64.4411 0.571411 54.5V18.5Z" fill="url(#paint0_linear_152_4733)"/>
<path fill-rule="evenodd" clip-rule="evenodd" d="M37.1133 13.1212C36.755 12.1021 36.0663 11.2533 35.2524 10.7038C35.2524 10.7038 35.7951 10.6724 36.5742 10.6759C43.7881 10.6759 45.3011 13.1212 46.3933 16.3942C47.2977 19.1107 50.8698 29.8273 50.8698 29.8273C51.082 30.4638 50.609 31.1212 49.9376 31.1212H44.2959C43.5933 31.1212 42.9672 30.669 42.7446 30.0012C42.7446 30.0012 37.3637 13.869 37.1133 13.1212Z" fill="url(#paint1_linear_152_4733)"/>
<path fill-rule="evenodd" clip-rule="evenodd" d="M16.7275 27.7227C16.8458 26.9192 17.5344 26.3279 18.3449 26.3279V26.3245H54.7971C55.6075 26.3245 56.2927 26.9192 56.4145 27.7192L60.324 53.7784C60.8562 57.3088 58.4562 60.6062 54.9362 61.2045C51.3118 61.8201 48.0249 62.3279 36.571 62.3279C25.1171 62.3279 21.8301 61.8201 18.2058 61.2045C14.6858 60.6062 12.2892 57.3088 12.8179 53.7784L16.7275 27.7227Z" fill="url(#paint2_radial_152_4733)"/>
<path fill-rule="evenodd" clip-rule="evenodd" d="M24.1746 24.1306C25.1811 21.1124 26.3011 17.7541 26.755 16.3941C27.8472 13.1211 29.3602 10.6724 36.5706 10.6724C37.3463 10.6724 37.8924 10.7037 37.8924 10.7037C37.082 11.2567 36.3898 12.1054 36.0315 13.1211C35.7846 13.8689 30.4002 30.001 30.4002 30.001C30.1776 30.6689 29.555 31.1211 28.8489 31.1211H23.2072C22.5359 31.1211 22.0628 30.4637 22.275 29.8271L24.1746 24.1306Z" fill="url(#paint3_linear_152_4733)"/>
<path fill-rule="evenodd" clip-rule="evenodd" d="M45.1001 37.0792L46.0009 43.0896C46.1401 44.0183 45.8653 44.9609 45.2496 45.6705L37.3122 54.8009C36.9053 55.267 36.2653 55.4583 35.667 55.2914C31.7053 54.1714 28.4531 51.3435 26.794 47.5766C26.5436 47.0096 26.6444 46.3487 27.0514 45.8792L34.9296 36.8183C35.5383 36.1157 36.4183 35.7157 37.347 35.7157H43.514C44.307 35.7157 44.9818 36.2966 45.1001 37.0792ZM39.5279 40.1609C39.5905 41.0409 40.3557 41.7087 41.2392 41.6461C42.1227 41.5835 42.787 40.8183 42.7244 39.9348C42.6618 39.0548 41.8966 38.387 41.0131 38.4496C40.1331 38.5122 39.4653 39.2774 39.5279 40.1609Z" fill="white"/>
</g>
<defs>
<linearGradient id="paint0_linear_152_4733" x1="66.5714" y1="72.5" x2="3.84413" y2="0.499996" gradientUnits="userSpaceOnUse">
<stop stop-color="#E6E9ED"/>
<stop offset="1" stop-color="#F2F3F5"/>
</linearGradient>
<linearGradient id="paint1_linear_152_4733" x1="47.123" y1="33.0775" x2="39.7054" y2="10.2485" gradientUnits="userSpaceOnUse">
<stop stop-color="#3AE3FF"/>
<stop offset="0.1816" stop-color="#38DFFF"/>
<stop offset="0.3696" stop-color="#32D2FD"/>
<stop offset="0.5605" stop-color="#27BEFB"/>
<stop offset="0.7535" stop-color="#19A1F9"/>
<stop offset="0.9463" stop-color="#067CF5"/>
<stop offset="1" stop-color="#0070F4"/>
</linearGradient>
<radialGradient id="paint2_radial_152_4733" cx="0" cy="0" r="1" gradientUnits="userSpaceOnUse" gradientTransform="translate(14.8231 32.2589) rotate(20) scale(51.9962 41.5969)">
<stop stop-color="#0070F4"/>
<stop offset="0.3019" stop-color="#006FF1"/>
<stop offset="0.4837" stop-color="#006BE9"/>
<stop offset="0.6336" stop-color="#0065DB"/>
<stop offset="0.7662" stop-color="#005BC6"/>
<stop offset="0.8862" stop-color="#0050AD"/>
<stop offset="0.9976" stop-color="#00418D"/>
<stop offset="1" stop-color="#00418C"/>
</radialGradient>
<linearGradient id="paint3_linear_152_4733" x1="26.3584" y1="32.0352" x2="33.7998" y2="9.13301" gradientUnits="userSpaceOnUse">
<stop stop-color="#00B63E"/>
<stop offset="1.32685e-07" stop-color="#00B63E"/>
<stop offset="0.154" stop-color="#13C03A"/>
<stop offset="0.522" stop-color="#3AD631"/>
<stop offset="0.8154" stop-color="#52E42C"/>
<stop offset="0.9956" stop-color="#5BE92A"/>
<stop offset="1" stop-color="#5BE92A"/>
</linearGradient>
<clipPath id="clip0_152_4733">
<rect x="0.571411" y="0.5" width="72" height="72" rx="14.7273" fill="white"/>
</clipPath>
</defs>
</svg>
