<svg width="73" height="73" viewBox="0 0 73 73" fill="none" xmlns="http://www.w3.org/2000/svg">
<g clip-path="url(#clip0_152_4775)">
<path d="M0.142822 18.5C0.142822 8.55888 8.2017 0.5 18.1428 0.5H54.1428C64.0839 0.5 72.1428 8.55888 72.1428 18.5V54.5C72.1428 64.4411 64.0839 72.5 54.1428 72.5H18.1428C8.2017 72.5 0.142822 64.4411 0.142822 54.5V18.5Z" fill="url(#paint0_linear_152_4775)"/>
<path fill-rule="evenodd" clip-rule="evenodd" d="M21.1575 36.2162C21.1575 29.6246 26.3691 17.4851 34.2217 12.5221C34.761 12.1824 35.3739 12.0107 35.9869 12.0107C36.5998 12.0107 37.2162 12.1824 37.7486 12.5256C45.6011 17.4851 50.8128 29.6246 50.8128 36.2162C50.8128 46.1912 45.6011 54.9474 37.7521 59.9104C36.6734 60.5934 35.2969 60.5934 34.2181 59.9104C26.3691 54.9474 21.1575 46.1912 21.1575 36.2162Z" fill="url(#paint1_radial_152_4775)"/>
<path fill-rule="evenodd" clip-rule="evenodd" d="M36.113 54.3802C45.9199 47.0215 51.8915 36.9099 54.3853 26.9734C54.4693 26.6057 54.7811 26.364 55.1768 26.371C56.2171 26.371 57.4359 28.441 58.3851 31.8734C58.914 33.7857 59.1837 35.9152 59.1837 37.9046C59.1837 47.715 53.0579 56.0964 44.4243 59.4307C41.8465 60.4254 39.0445 60.9823 36.1165 60.9823C33.5562 60.9823 31.0904 60.5515 28.7858 59.7809C28.6212 59.7249 28.4601 59.6689 28.2955 59.6093C28.1309 59.5498 27.9698 59.4902 27.8086 59.4272C25.6476 58.5936 23.6477 57.4448 21.858 56.0368C22.3833 56.4081 24.5338 57.1401 27.0276 57.1401C32.3128 57.1401 36.113 54.3802 36.113 54.3802Z" fill="url(#paint2_radial_152_4775)"/>
<path fill-rule="evenodd" clip-rule="evenodd" d="M13.1019 37.9115C13.1019 35.9256 13.3716 33.7926 13.9004 31.8802C14.8496 28.4478 16.0684 26.3779 17.1087 26.3708C17.5045 26.3708 17.8162 26.6125 17.9002 26.9803C20.394 36.9168 26.3657 47.0284 36.1726 54.387C36.1726 54.387 40.0183 57.0384 45.5521 57.0384C48.0459 57.0384 49.9022 56.4149 50.4276 56.0437C48.6378 57.4517 46.6344 58.6005 44.4769 59.4341C44.35 59.4837 44.221 59.5312 44.0932 59.5782C44.0587 59.5909 44.0243 59.6035 43.99 59.6162C43.8254 59.6757 43.6643 59.7318 43.4997 59.7878C41.1986 60.5583 38.7329 60.9892 36.1691 60.9892C33.241 60.9892 30.439 60.4358 27.8612 59.4376C19.2277 56.1032 13.1019 47.7253 13.1019 37.9115Z" fill="url(#paint3_radial_152_4775)"/>
</g>
<defs>
<linearGradient id="paint0_linear_152_4775" x1="0.130162" y1="0.511519" x2="72.1304" y2="72.5118" gradientUnits="userSpaceOnUse">
<stop stop-color="#0070F4"/>
<stop offset="1" stop-color="#00418C"/>
</linearGradient>
<radialGradient id="paint1_radial_152_4775" cx="0" cy="0" r="1" gradientUnits="userSpaceOnUse" gradientTransform="translate(21.7294 36.1595) scale(31.4945 31.4945)">
<stop stop-color="white"/>
<stop offset="0.4035" stop-color="#FDFDFE"/>
<stop offset="0.5695" stop-color="#F6F8F9"/>
<stop offset="0.6919" stop-color="#EAEEF0"/>
<stop offset="0.7928" stop-color="#D8E0E4"/>
<stop offset="0.8806" stop-color="#C1CED5"/>
<stop offset="0.9579" stop-color="#A6B8C2"/>
<stop offset="1" stop-color="#93A9B5"/>
</radialGradient>
<radialGradient id="paint2_radial_152_4775" cx="0" cy="0" r="1" gradientUnits="userSpaceOnUse" gradientTransform="translate(44.7394 25.2555) rotate(79.9684) scale(39.3335 35.4001)">
<stop stop-color="#3AE3FF"/>
<stop offset="0.3" stop-color="#3AE3FF"/>
<stop offset="0.8" stop-color="#0070F4"/>
<stop offset="1" stop-color="#0070F4"/>
</radialGradient>
<radialGradient id="paint3_radial_152_4775" cx="0" cy="0" r="1" gradientUnits="userSpaceOnUse" gradientTransform="translate(15.1566 26.2667) rotate(60) scale(46.3257 46.3257)">
<stop stop-color="#5BE92A"/>
<stop offset="0.3" stop-color="#5BE92A"/>
<stop offset="0.8" stop-color="#00B63E"/>
<stop offset="1" stop-color="#00B63E"/>
</radialGradient>
<clipPath id="clip0_152_4775">
<rect x="0.142822" y="0.5" width="72" height="72" rx="14.7273" fill="white"/>
</clipPath>
</defs>
</svg>
